<svg width="512" height="512" viewBox="0 0 512 512" fill="none" xmlns="http://www.w3.org/2000/svg">
  <defs>
    <clipPath id="clip">
      <circle cx="256" cy="256" r="224"/>
    </clipPath>
  </defs>
  <g clip-path="url(#clip)">
    <g transform="rotate(0 256 256)"><path d="M256 80 L356 256 L256 432 L156 256 Z" fill="#0B1020"/></g>
    <g transform="rotate(60 256 256)"><path d="M256 80 L356 256 L256 432 L156 256 Z" fill="#0B1020"/></g>
    <g transform="rotate(120 256 256)"><path d="M256 80 L356 256 L256 432 L156 256 Z" fill="#0B1020"/></g>
    <g transform="rotate(180 256 256)"><path d="M256 80 L356 256 L256 432 L156 256 Z" fill="#0B1020"/></g>
    <g transform="rotate(240 256 256)"><path d="M256 80 L356 256 L256 432 L156 256 Z" fill="#0B1020"/></g>
    <g transform="rotate(300 256 256)"><path d="M256 80 L356 256 L256 432 L156 256 Z" fill="#0B1020"/></g>
    <circle cx="256" cy="256" r="110" fill="#FFFFFF"/>
  </g>
  <circle cx="256" cy="256" r="224" stroke="#0B1020" stroke-width="4" fill="none"/>
</svg>
