<svg width="256" height="256" viewBox="0 0 512 512" fill="none" xmlns="http://www.w3.org/2000/svg">
  <defs>
    <linearGradient id="grad" x1="128" y1="96" x2="384" y2="416" gradientUnits="userSpaceOnUse">
      <stop offset="0" stop-color="#0EA5E9"/>
      <stop offset="1" stop-color="#6366F1"/>
    </linearGradient>
    <clipPath id="clip">
      <circle cx="256" cy="256" r="224"/>
    </clipPath>
  </defs>
  <g clip-path="url(#clip)">
    <g transform="rotate(0 256 256)"><path d="M256 80 L356 256 L256 432 L156 256 Z" fill="url(#grad)"/></g>
    <g transform="rotate(60 256 256)"><path d="M256 80 L356 256 L256 432 L156 256 Z" fill="url(#grad)"/></g>
    <g transform="rotate(120 256 256)"><path d="M256 80 L356 256 L256 432 L156 256 Z" fill="url(#grad)"/></g>
    <g transform="rotate(180 256 256)"><path d="M256 80 L356 256 L256 432 L156 256 Z" fill="url(#grad)"/></g>
    <g transform="rotate(240 256 256)"><path d="M256 80 L356 256 L256 432 L156 256 Z" fill="url(#grad)"/></g>
    <g transform="rotate(300 256 256)"><path d="M256 80 L356 256 L256 432 L156 256 Z" fill="url(#grad)"/></g>
    <circle cx="256" cy="256" r="110" fill="#F8FAFC"/>
  </g>
  <circle cx="256" cy="256" r="224" stroke="#E5E7EB" stroke-width="4" fill="none"/>
</svg>
